<?xml version="1.0" encoding="UTF-8"?>
<svg id="Layer_2" data-name="Layer 2" xmlns="http://www.w3.org/2000/svg" viewBox="0 0 244.5 68.07">
  <defs>
    <style>
      .cls-1 {
        fill: #ebe4d8;
      }

      .cls-2 {
        fill: #fff;
      }
    </style>
  </defs>
  <g id="Layer_1-2" data-name="Layer 1">
    <g>
      <rect class="cls-1" x=".77" y="3.66" width="242.96" height="60.76" rx="3.9" ry="3.9" transform="translate(-1 3.83) rotate(-1.79)"/>
      <path d="M17.73,34.99c-1.39.04-2.38-.18-2.98-.68-.59-.5-.9-1.19-.93-2.07-.02-.6.09-1.06.32-1.39.23-.33.54-.59.92-.77.38-.18.76-.31,1.14-.37.7-.09,1.27-.23,1.69-.42.43-.18.64-.45.63-.79,0-.23-.12-.44-.34-.61-.22-.17-.5-.35-.83-.52-.33-.17-.69-.37-1.06-.6-.38-.23-.74-.52-1.08-.86-.35-.34-.63-.78-.85-1.32-.22-.54-.35-1.19-.37-1.97-.03-.85.15-1.62.54-2.31.39-.69.92-1.28,1.6-1.76.68-.48,1.46-.85,2.34-1.12.88-.26,1.78-.41,2.7-.44,1.41-.04,2.41.17,3,.65.59.48.9,1.17.93,2.07.02.56-.08,1.01-.28,1.36-.21.35-.47.61-.79.78-.32.17-.65.28-.99.33-.56.07-.99.19-1.3.35-.31.16-.46.4-.45.71,0,.23.12.43.33.57.21.15.5.3.85.46.36.16.72.35,1.1.56.38.21.75.49,1.11.82.36.33.67.76.91,1.27.24.52.37,1.15.4,1.91.03.98-.18,1.84-.64,2.58-.46.75-1.08,1.38-1.87,1.89-.79.51-1.68.91-2.66,1.19-.99.28-2.01.44-3.08.48Z"/>
      <path d="M33.9,34.48c-2.4.07-4.16-.48-5.27-1.65-1.11-1.18-1.7-2.93-1.78-5.26-.03-1.05-.03-1.98,0-2.79.04-.81.15-1.52.33-2.12.18-.64.49-1.13.93-1.48.44-.35,1.07-.53,1.88-.56s1.44.16,1.89.55c.45.39.68,1.08.71,2.05.02.69.03,1.36.04,2.02,0,.66.02,1.37.04,2.13.02.51.12.86.32,1.06.2.2.45.3.75.29.27,0,.5-.12.68-.33.18-.21.27-.57.25-1.08-.02-.76-.06-1.47-.11-2.12-.05-.66-.07-1.33-.08-2.02-.05-.97.14-1.67.57-2.09.43-.42,1.07-.64,1.92-.67.69-.02,1.23.13,1.64.45.41.32.72.8.94,1.42.22.57.36,1.27.44,2.09.08.82.15,1.75.2,2.8.05,2.33-.41,4.12-1.39,5.36-.98,1.24-2.62,1.9-4.91,1.97Z"/>
      <path d="M45.57,37.59c-.92.03-1.65-.15-2.2-.54-.55-.39-.95-1.01-1.21-1.87-.22-.75-.39-1.69-.49-2.8-.11-1.12-.18-2.41-.23-3.87-.04-1.32-.05-2.46-.01-3.43.03-.97.14-1.79.32-2.46.19-.82.51-1.43.95-1.82.44-.39,1-.6,1.69-.62.33-.01.58.03.78.11.19.08.37.21.54.36.15.14.28.26.39.35.11.1.26.14.44.14s.35-.04.51-.1c.16-.06.32-.13.48-.2.34-.23.71-.43,1.12-.62.41-.18.89-.29,1.43-.3,1.08-.03,2.01.21,2.77.74.77.53,1.37,1.31,1.82,2.34.45,1.03.7,2.3.74,3.8s-.17,2.79-.64,3.82c-.47,1.03-1.14,1.8-1.99,2.33-.85.52-1.81.8-2.87.84-.29,0-.52-.02-.69-.07-.17-.06-.31-.12-.41-.18-.1-.06-.18-.09-.23-.09-.16,0-.27.06-.33.16-.06.1-.09.26-.08.48,0,.14.02.3.04.46.02.16.04.31.05.46.01.14.02.32.03.51.02.7-.23,1.22-.76,1.56-.53.33-1.18.51-1.94.53ZM48.51,28.52c.49-.02.86-.19,1.11-.52.25-.33.37-.78.35-1.34-.02-.52-.16-.93-.43-1.23-.27-.3-.65-.44-1.14-.43-.2,0-.39.04-.58.11-.19.07-.35.18-.49.34-.14.16-.25.36-.32.59-.07.24-.11.52-.1.84.01.36.08.67.19.92.12.25.29.43.52.55.23.12.52.17.89.16Z"/>
      <path d="M60.63,37.12c-.92.03-1.65-.15-2.2-.54-.55-.39-.95-1.01-1.21-1.87-.22-.75-.39-1.69-.49-2.8-.11-1.12-.18-2.41-.23-3.87-.04-1.32-.05-2.46-.01-3.43.03-.97.14-1.79.32-2.46.19-.82.51-1.43.95-1.82.44-.39,1-.6,1.69-.62.33-.01.58.03.78.11.19.08.37.21.54.36.15.14.28.26.39.35.11.1.26.14.44.14s.35-.04.51-.1c.16-.06.32-.13.48-.2.34-.23.71-.43,1.12-.62.41-.18.89-.29,1.43-.3,1.08-.03,2.01.21,2.77.74.77.53,1.37,1.31,1.82,2.34.45,1.03.7,2.3.74,3.8s-.17,2.79-.64,3.82c-.47,1.03-1.14,1.8-1.99,2.33-.85.52-1.81.8-2.87.84-.29,0-.52-.02-.69-.07-.17-.06-.31-.12-.41-.18-.1-.06-.18-.09-.23-.09-.16,0-.27.06-.33.16-.06.1-.09.26-.08.48,0,.14.02.3.04.46.02.16.04.31.05.46.01.14.02.32.03.51.02.7-.23,1.22-.76,1.56-.53.33-1.18.51-1.94.53ZM63.57,28.05c.49-.02.86-.19,1.11-.52.25-.33.37-.78.35-1.34-.02-.52-.16-.93-.43-1.23-.27-.3-.65-.44-1.14-.43-.2,0-.39.04-.58.11-.19.07-.35.18-.49.34-.14.16-.25.36-.32.59-.07.24-.11.52-.1.84.01.36.08.67.19.92.12.25.29.43.52.55.23.12.52.17.89.16Z"/>
      <path d="M78.42,33.09c-1.26.04-2.42-.21-3.47-.76-1.05-.55-1.89-1.35-2.54-2.4-.65-1.05-.99-2.31-1.04-3.78s.22-2.75.8-3.79c.58-1.05,1.38-1.86,2.39-2.43,1.01-.57,2.16-.88,3.44-.92s2.45.19,3.51.7c1.05.51,1.91,1.26,2.58,2.26.66,1,1.02,2.24,1.07,3.72s-.23,2.74-.83,3.83c-.6,1.09-1.41,1.95-2.44,2.57-1.03.62-2.18.95-3.47.99ZM78.28,27.59c.49-.02.87-.19,1.15-.54.28-.34.41-.79.39-1.33s-.18-.93-.49-1.22-.7-.43-1.17-.41c-.43.01-.79.18-1.07.49-.28.32-.41.74-.39,1.26s.17.97.46,1.29c.29.32.66.47,1.11.45Z"/>
      <path d="M89.93,32.62c-.79.02-1.45-.11-1.96-.41-.52-.3-.91-.83-1.19-1.58-.18-.45-.32-1.02-.42-1.74-.1-.71-.17-1.67-.21-2.88-.03-1.1,0-2.11.08-3.01.09-.91.24-1.67.46-2.29.21-.66.48-1.14.8-1.45.32-.31.71-.47,1.18-.48.36-.01.63.04.8.16.18.12.3.25.38.39.06.11.11.19.16.25.05.06.11.11.18.13.07.02.14.04.19.03.25,0,.48-.08.67-.21.3-.23.59-.44.87-.65.28-.21.65-.32,1.1-.33.56-.02.99.12,1.3.42.31.3.52.69.65,1.19.12.49.19,1.02.21,1.58.03.92-.1,1.68-.39,2.28-.29.6-.68.9-1.16.92-.16,0-.33-.02-.49-.07s-.34-.07-.52-.07c-.11,0-.22.03-.34.09-.12.06-.22.14-.3.25-.09.11-.15.25-.2.41-.05.16-.07.38-.06.65.01.45.11.94.29,1.47.18.53.28,1.19.31,1.98.03.99-.17,1.73-.61,2.2-.44.47-1.03.72-1.77.75Z"/>
      <path d="M101.06,32.38c-1.1.03-2-.17-2.7-.61-.7-.44-1.23-1.12-1.6-2.04-.36-.92-.57-2.1-.61-3.55l-.06-1.99c-.02-.66-.04-1.3-.05-1.91-.01-.61,0-1.19,0-1.72.01-.53.04-1.02.08-1.45s.09-.81.15-1.12c.15-.84.42-1.43.8-1.79.38-.35.9-.54,1.57-.56.76-.02,1.36.13,1.8.46.44.33.79.95,1.03,1.87.06.21.13.36.22.44.08.08.24.11.48.11h.42c.12-.02.22-.02.31-.02.67-.02,1.2.15,1.6.51.4.36.62,1.04.65,2.05.03,1.07-.16,1.8-.57,2.2-.41.4-.92.61-1.51.63h-.34c-.12.01-.27.02-.45.02-.16,0-.28.04-.36.09s-.12.17-.11.33l.02.7.02.49c.01.42.11.69.28.83.18.14.39.2.64.2.18,0,.32-.02.41-.04.09-.02.21-.03.35-.04.6-.02,1.07.15,1.41.51.35.36.53.93.55,1.7.02.63-.1,1.23-.36,1.79-.26.56-.72,1.01-1.37,1.34-.65.34-1.55.52-2.71.56Z"/>
      <path d="M114.71,35.43c-1.32.04-2.36-.19-3.14-.7-.78-.51-1.18-1.27-1.21-2.28-.02-.69.19-1.21.63-1.58.44-.37.95-.56,1.53-.58.54-.02.96,0,1.26.07.3.06.68.09,1.15.07.4-.01.67-.08.82-.19.15-.11.22-.26.22-.44,0-.25-.13-.43-.36-.53-.23-.1-.54-.21-.92-.34-.38-.12-.81-.32-1.27-.6-.46-.27-.91-.69-1.34-1.26-.34-.42-.63-.92-.89-1.48-.25-.56-.45-1.17-.59-1.84-.14-.66-.22-1.34-.24-2.03-.02-.72.03-1.36.14-1.92.12-.55.36-.99.73-1.3.37-.31.92-.48,1.67-.5.69-.02,1.25.17,1.7.57.45.4.85,1.05,1.2,1.96.35.9.7,2.1,1.03,3.59.04.22.1.36.18.43.07.07.16.1.25.1s.17-.04.24-.12c.07-.07.12-.22.15-.44.21-1.43.43-2.62.68-3.55.24-.93.58-1.62,1.01-2.08.43-.46,1.02-.7,1.78-.72s1.27.11,1.64.41c.37.3.63.72.77,1.26.14.55.23,1.19.25,1.93.02.56,0,1.17-.08,1.82-.07.65-.18,1.33-.33,2.03-.15.7-.34,1.4-.57,2.11-.23.7-.49,1.38-.78,2.02-.74,1.87-1.69,3.33-2.84,4.4-1.16,1.07-2.65,1.63-4.47,1.68Z"/>
      <path d="M131.59,31.43c-1.26.04-2.42-.21-3.47-.76-1.05-.55-1.89-1.35-2.54-2.4-.65-1.05-.99-2.31-1.04-3.78s.22-2.75.8-3.79c.58-1.05,1.38-1.86,2.39-2.43,1.01-.57,2.16-.88,3.44-.92s2.45.19,3.51.7c1.05.51,1.91,1.26,2.58,2.26.66,1,1.02,2.24,1.07,3.72s-.23,2.74-.83,3.83c-.6,1.09-1.41,1.95-2.44,2.57-1.03.62-2.18.95-3.47.99ZM131.44,25.93c.49-.02.87-.19,1.15-.54.28-.34.41-.79.39-1.33s-.18-.93-.49-1.22-.7-.43-1.17-.41c-.43.01-.79.18-1.07.49-.28.32-.41.74-.39,1.26s.17.97.46,1.29c.29.32.66.47,1.11.45Z"/>
      <path d="M146.32,30.97c-2.4.07-4.16-.48-5.27-1.65-1.11-1.18-1.7-2.93-1.78-5.26-.03-1.05-.03-1.98,0-2.79.04-.81.15-1.52.33-2.12.18-.64.49-1.13.93-1.48.44-.35,1.07-.53,1.88-.56s1.44.16,1.89.55c.45.39.68,1.08.71,2.05.02.69.03,1.36.04,2.02,0,.66.02,1.37.04,2.13.02.51.12.86.32,1.06.2.2.45.3.75.29.27,0,.5-.12.68-.33.18-.21.27-.57.25-1.08-.02-.76-.06-1.47-.11-2.12-.05-.66-.07-1.33-.08-2.02-.05-.97.14-1.67.57-2.09.43-.42,1.07-.64,1.92-.67.69-.02,1.23.13,1.64.45.41.32.72.8.94,1.42.22.57.36,1.27.44,2.09.08.82.15,1.75.2,2.8.05,2.33-.41,4.12-1.39,5.36-.98,1.24-2.62,1.9-4.91,1.97Z"/>
      <path d="M157.56,30.51c-.79.02-1.45-.11-1.96-.41-.52-.3-.91-.83-1.19-1.58-.18-.45-.32-1.02-.42-1.74-.1-.71-.17-1.67-.21-2.88-.03-1.1,0-2.11.08-3.01.09-.91.24-1.67.46-2.29.21-.66.48-1.14.8-1.45.32-.31.71-.47,1.18-.48.36-.01.63.04.8.16.18.12.3.25.38.39.06.11.11.19.16.25.05.06.11.11.18.13.07.02.14.04.19.03.25,0,.48-.08.67-.21.3-.23.59-.44.87-.65.28-.21.65-.32,1.1-.33.56-.02.99.12,1.3.42.31.3.52.69.65,1.19.12.49.19,1.02.21,1.58.03.92-.1,1.68-.39,2.28-.29.6-.68.9-1.16.92-.16,0-.33-.02-.49-.07s-.34-.07-.52-.07c-.11,0-.22.03-.34.09-.12.06-.22.14-.3.25-.09.11-.15.25-.2.41-.05.16-.07.38-.06.65.01.45.11.94.29,1.47.18.53.28,1.19.31,1.98.03.99-.17,1.73-.61,2.2-.44.47-1.03.72-1.77.75Z"/>
      <path d="M21.48,53.88c-.92.03-1.64-.18-2.15-.62-.51-.44-.89-.99-1.15-1.63-.2-.54-.37-1.16-.51-1.88-.14-.72-.25-1.47-.31-2.27-.07-.79-.12-1.54-.14-2.25-.03-.99-.04-2.04-.02-3.13.02-1.09.14-2.18.36-3.25.17-.87.48-1.53.93-1.97.45-.44,1.08-.67,1.89-.7.92-.03,1.56.2,1.92.67.36.48.56,1.31.59,2.5.02.54.03,1.11.03,1.69,0,.59,0,1.17-.03,1.75-.02.58-.04,1.14-.07,1.67-.03.53-.05,1.05-.06,1.53-.01.49-.01.9,0,1.25.01.47.09.79.22.97.13.18.35.32.66.44.27.05.49.19.66.44.17.25.27.7.29,1.35.02.52-.06,1.05-.22,1.57-.16.52-.48.95-.94,1.3-.46.35-1.11.54-1.96.56Z"/>
      <path d="M31.99,53.66c-1.26.04-2.42-.21-3.47-.76-1.05-.55-1.89-1.35-2.54-2.4-.65-1.05-.99-2.31-1.04-3.78s.22-2.75.8-3.79c.58-1.05,1.38-1.86,2.39-2.43,1.01-.57,2.16-.88,3.44-.92s2.45.19,3.51.7c1.05.51,1.91,1.26,2.58,2.26.66,1,1.02,2.24,1.07,3.72s-.23,2.74-.83,3.83c-.6,1.09-1.41,1.95-2.44,2.57-1.03.62-2.18.95-3.47.99ZM31.85,48.16c.49-.02.87-.19,1.15-.54.28-.34.41-.79.39-1.33s-.18-.93-.49-1.22-.7-.43-1.17-.41c-.43.01-.79.18-1.07.49-.28.32-.41.74-.39,1.26s.17.97.46,1.29c.29.32.66.47,1.11.45Z"/>
      <path d="M46.46,53.21c-1.19.04-2.3-.21-3.32-.74-1.02-.53-1.84-1.32-2.47-2.38-.63-1.06-.97-2.34-1.02-3.86s.24-2.72.84-3.77c.61-1.05,1.44-1.86,2.49-2.44,1.05-.57,2.18-.88,3.39-.92,1.37-.04,2.39.18,3.04.68.66.49,1,1.2,1.03,2.12.02.72-.15,1.27-.52,1.64-.18.19-.37.33-.6.44-.22.11-.48.2-.76.27-.29.07-.6.14-.94.21-.38.07-.7.17-.98.3-.28.14-.48.32-.62.56-.14.24-.2.51-.19.82s.09.58.24.81c.15.23.37.4.64.52.27.12.59.19.96.21.36.03.69.06.98.09.29.04.55.09.79.17.24.07.44.2.61.37.2.19.36.44.46.74.1.3.16.64.17,1,.02.51-.12.99-.4,1.46-.28.47-.74.86-1.36,1.17-.62.31-1.44.48-2.45.51Z"/>
      <path d="M56.26,52.87c-.89-.03-1.73-.31-2.52-.84-.79-.54-1.44-1.32-1.93-2.35-.49-1.03-.76-2.29-.81-3.77s.15-2.72.57-3.77c.43-1.05,1.02-1.86,1.78-2.43.76-.57,1.61-.86,2.55-.89.47-.01.91.07,1.34.24.42.18.8.46,1.14.85.13.16.24.28.34.36.09.08.21.12.36.11.2,0,.44-.21.71-.62.22-.33.49-.58.79-.74.3-.16.69-.25,1.16-.27.67-.02,1.16.1,1.47.35.31.25.58.62.79,1.1.29.64.51,1.42.66,2.32.15.91.24,1.9.27,2.99.04,1.23.03,2.24-.01,3.04-.05.8-.15,1.45-.32,1.96-.23.73-.55,1.26-.97,1.59-.41.33-.9.5-1.46.52-.51.02-.92-.07-1.25-.25-.33-.18-.62-.45-.87-.8-.23-.35-.44-.53-.64-.52-.18,0-.39.16-.64.45-.33.44-.7.78-1.12,1.01-.42.23-.88.35-1.38.37ZM57.88,47.35c.2,0,.39-.05.57-.13.18-.08.34-.2.49-.35s.26-.35.33-.57c.07-.22.11-.47.1-.76s-.06-.54-.15-.77c-.09-.22-.21-.41-.37-.56-.16-.15-.33-.25-.51-.31-.18-.06-.37-.08-.57-.08-.47.01-.83.18-1.1.5-.26.32-.38.74-.37,1.29s.17.99.45,1.3c.28.31.66.45,1.13.44Z"/>
      <path d="M70.39,52.35c-.92.03-1.64-.18-2.15-.62-.51-.44-.89-.99-1.15-1.63-.2-.54-.37-1.16-.51-1.88-.14-.72-.25-1.47-.31-2.27-.07-.79-.12-1.54-.14-2.25-.03-.99-.04-2.04-.02-3.13.02-1.09.14-2.18.36-3.25.17-.87.48-1.53.93-1.97.45-.44,1.08-.67,1.89-.7.92-.03,1.56.2,1.92.67.36.48.56,1.31.59,2.5.02.54.03,1.11.03,1.69,0,.59,0,1.17-.03,1.75-.02.58-.04,1.14-.07,1.67-.03.53-.05,1.05-.06,1.53-.01.49-.01.9,0,1.25.01.47.09.79.22.97.13.18.35.32.66.44.27.05.49.19.66.44.17.25.27.7.29,1.35.02.52-.06,1.05-.22,1.57-.16.52-.48.95-.94,1.3-.46.35-1.11.54-1.96.56Z"/>
      <path d="M83.72,52.02c-.89-.03-1.73-.31-2.52-.84-.79-.54-1.44-1.32-1.93-2.35-.49-1.03-.76-2.29-.81-3.77s.15-2.72.57-3.77c.43-1.05,1.02-1.86,1.78-2.43.76-.57,1.61-.86,2.55-.89.47-.01.91.07,1.34.24.42.18.8.46,1.14.85.13.16.24.28.34.36.09.08.21.12.36.11.2,0,.44-.21.71-.62.22-.33.49-.58.79-.74.3-.16.69-.25,1.16-.27.67-.02,1.16.1,1.47.35.31.25.58.62.79,1.1.29.64.51,1.42.66,2.32.15.91.24,1.9.27,2.99.04,1.23.03,2.24-.01,3.04-.05.8-.15,1.45-.32,1.96-.23.73-.55,1.26-.97,1.59-.41.33-.9.5-1.46.52-.51.02-.92-.07-1.25-.25-.33-.18-.62-.45-.87-.8-.23-.35-.44-.53-.64-.52-.18,0-.39.16-.64.45-.33.44-.7.78-1.12,1.01-.42.23-.88.35-1.38.37ZM85.34,46.49c.2,0,.39-.05.57-.13.18-.08.34-.2.49-.35s.26-.35.33-.57c.07-.22.11-.47.1-.76s-.06-.54-.15-.77c-.09-.22-.21-.41-.37-.56-.16-.15-.33-.25-.51-.31-.18-.06-.37-.08-.57-.08-.47.01-.83.18-1.1.5-.26.32-.38.74-.37,1.29s.17.99.45,1.3c.28.31.66.45,1.13.44Z"/>
      <path d="M97.45,51.51c-.79.02-1.45-.11-1.96-.41-.52-.3-.91-.83-1.19-1.58-.18-.45-.32-1.02-.42-1.74-.1-.71-.17-1.67-.21-2.88-.03-1.1,0-2.1.08-3.01.09-.91.24-1.67.46-2.29.21-.66.48-1.14.8-1.45s.71-.47,1.18-.48c.36-.01.63.04.8.16.18.12.3.25.38.39.06.11.11.19.16.25.05.06.11.11.18.13.07.02.14.04.19.03.25,0,.48-.08.67-.21.3-.23.59-.44.87-.65.28-.21.65-.32,1.1-.33.56-.02.99.12,1.3.42.31.3.52.69.65,1.19.12.49.19,1.02.21,1.58.03.92-.1,1.68-.39,2.28-.29.6-.68.9-1.16.92-.16,0-.33-.02-.49-.07-.16-.05-.34-.07-.52-.07-.11,0-.22.03-.34.09-.12.06-.22.14-.3.25-.09.11-.15.25-.2.41-.05.16-.07.38-.06.65.01.45.11.94.29,1.47.18.53.28,1.19.31,1.98.03.99-.17,1.73-.61,2.2-.44.47-1.03.72-1.77.75Z"/>
      <path d="M108.58,51.27c-1.1.03-2-.17-2.7-.61-.7-.44-1.23-1.12-1.6-2.04-.36-.92-.57-2.1-.61-3.55l-.06-1.99c-.02-.66-.04-1.3-.05-1.91-.01-.61,0-1.19,0-1.72.01-.53.04-1.02.08-1.45s.09-.81.15-1.12c.15-.84.42-1.43.8-1.79.38-.35.9-.54,1.57-.56.76-.02,1.36.13,1.8.46.44.33.79.95,1.03,1.87.06.22.13.36.22.44.08.08.24.11.48.11h.42c.12-.02.22-.02.31-.02.67-.02,1.2.15,1.6.51.4.36.62,1.04.65,2.05.03,1.07-.16,1.8-.57,2.2-.41.4-.92.61-1.51.63h-.34c-.12.01-.27.02-.45.02-.16,0-.28.04-.36.09s-.12.17-.11.33l.02.7.02.49c.01.42.11.69.28.83.18.14.39.2.64.2.18,0,.32-.02.41-.04.09-.02.21-.03.35-.04.6-.02,1.07.15,1.41.51.35.36.53.93.55,1.7.02.63-.1,1.23-.36,1.79-.26.56-.72,1.01-1.37,1.34-.65.34-1.55.52-2.71.56Z"/>
      <path d="M117.17,50.89c-.63.02-1.14-.07-1.53-.26-.39-.2-.7-.51-.95-.93-.19-.36-.34-.81-.45-1.37-.11-.56-.19-1.2-.24-1.92-.05-.72-.09-1.52-.11-2.38s-.04-1.6-.04-2.3c0-.7.03-1.34.12-1.91.08-.57.21-1.04.38-1.41.2-.42.5-.75.89-.99.39-.24.89-.37,1.51-.39,1.17-.04,1.99.38,2.45,1.25.21.34.37.79.48,1.35.11.57.18,1.21.22,1.92.04.71.07,1.48.1,2.29.03.87.03,1.67.02,2.4-.01.73-.05,1.38-.1,1.94-.05.56-.18,1.03-.36,1.39-.37.84-1.16,1.28-2.37,1.32Z"/>
      <path d="M124.32,50.78c-1.21.04-2.07-.15-2.59-.56-.52-.41-.79-.96-.81-1.67-.02-.49.09-.87.3-1.13.22-.27.5-.47.84-.61.34-.14.66-.23.97-.27.59-.09,1.06-.19,1.41-.3.35-.11.52-.3.51-.57,0-.22-.14-.4-.4-.54-.26-.15-.57-.3-.95-.46-.38-.16-.75-.37-1.13-.64-.38-.27-.7-.63-.97-1.09-.27-.46-.41-1.06-.44-1.8-.03-.96.25-1.77.85-2.43.59-.66,1.37-1.17,2.34-1.52.96-.36,1.99-.55,3.07-.58,1.23-.04,2.09.14,2.58.54.49.4.75.95.77,1.66.01.43-.07.79-.24,1.06-.17.28-.4.48-.67.62-.28.14-.56.23-.84.3-.49.05-.86.14-1.13.25-.27.12-.4.3-.39.55,0,.22.14.39.41.53.27.14.59.28.98.42.38.14.77.34,1.17.59.4.25.73.59,1.01,1.03.28.43.42,1.02.45,1.76.02.78-.16,1.46-.56,2.06-.4.6-.94,1.1-1.62,1.51-.68.41-1.45.72-2.3.94-.85.22-1.72.34-2.6.37Z"/>
      <path d="M138.35,50.34c-1.1.03-2.01-.13-2.74-.5-.73-.37-1.27-.89-1.62-1.58-.36-.68-.56-1.49-.6-2.41,0-.78,0-1.38.04-1.8.03-.43.04-.81.03-1.15,0-.25-.05-.45-.13-.59-.08-.14-.22-.25-.42-.31-.15-.05-.33-.15-.54-.31-.21-.16-.39-.42-.54-.8-.15-.37-.23-.89-.25-1.54-.03-.88.12-1.55.44-1.99.32-.44.73-.67,1.24-.69.13,0,.22-.05.29-.14.07-.09.12-.29.14-.6.01-.11.02-.21.03-.3,0-.09.02-.16.03-.22.09-.64.33-1.09.73-1.36.4-.27.9-.42,1.52-.44.74-.02,1.31.13,1.72.46.41.33.73.95.98,1.87.06.22.14.36.23.44.09.08.25.11.46.11h.42c.12-.02.23-.02.34-.02.67-.02,1.2.15,1.59.51.39.36.6,1.04.63,2.05.03,1.07-.16,1.8-.57,2.2-.41.4-.91.61-1.49.63h-.37c-.12.02-.26.02-.42.02-.18,0-.31.04-.39.09s-.12.17-.11.33l.02.7.02.49c.01.42.11.69.3.83.18.14.39.2.63.2.18,0,.32-.02.41-.04.09-.02.21-.03.35-.04.61-.02,1.09.15,1.44.51.35.36.53.93.55,1.7.02.63-.11,1.23-.38,1.79-.27.56-.73,1.01-1.37,1.34-.64.34-1.53.52-2.67.56Z"/>
      <path d="M161.03,46.71c-.67.43-1.21.63-1.61.61-.4-.02-.71-.21-.94-.56-.1-.15-.15-.32-.17-.52-.02-.19-.02-.42-.02-.68.05-.29.07-.54.06-.74-.01-.21-.05-.36-.12-.47-.12-.18-.28-.29-.49-.31-.21-.03-.51.09-.91.34-.27.17-.55.36-.84.55-.28.19-.57.38-.85.58-.28.19-.57.38-.85.58-.28.19-.57.37-.85.53-.28.16-.57.3-.86.42-.45.2-.87.3-1.25.3-.39,0-.77-.14-1.15-.41-.38-.27-.77-.72-1.16-1.35-.6-.94-.86-1.7-.77-2.27.09-.57.41-1.09.97-1.55.23-.21.48-.41.75-.59.27-.18.55-.37.84-.55s.58-.37.88-.54c.29-.18.59-.35.88-.53.29-.18.58-.35.85-.53.4-.25.63-.48.69-.68.06-.2.04-.39-.08-.58-.08-.12-.21-.23-.4-.32-.19-.09-.41-.18-.67-.25-.24-.1-.44-.21-.61-.3-.17-.1-.3-.22-.4-.37-.23-.37-.27-.73-.12-1.1.15-.37.55-.75,1.19-1.16.72-.46,1.52-.74,2.42-.84.9-.1,1.81-.08,2.74.07.93.15,1.8.38,2.6.7.71.28,1.31.58,1.78.9.48.33.85.7,1.11,1.11.28.44.47.96.57,1.57.1.6.12,1.33.08,2.17-.08.85-.25,1.71-.51,2.61-.26.89-.62,1.71-1.08,2.44-.46.74-1.03,1.32-1.7,1.74Z"/>
      <g>
        <g>
          <g>
            <path class="cls-2" d="M208.93,12.93l4.67-.15c3.58-.11,6.66,2.28,7.57,5.59h.31c-.59-2.39-1.24-4.67-1.75-4.9-.17-.1-.33-.21-.5-.32-.3-.19-.6-.38-.91-.57-.09-.05-.18-.11-.26-.16-.22-.13-.44-.27-.66-.39-.13-.08-.27-.15-.4-.23-.32-.17-.64-.33-.97-.48-.21-.09-.41-.18-.62-.25-.13-.05-.26-.09-.39-.13-.03-.01-.07-.02-.1-.03-.2-.06-.4-.11-.61-.15-.38-.08-.76-.12-1.14-.12-1.85-.27-3.69-.44-5.57-.43-1.62,0-3.25.08-4.88.04-1.45-.04-2.95-.11-4.42.24-3.7.86-7.49,1.11-11.24,1.56-1.92.23-3.67.9-5.37,1.75h.47s26.78-.85,26.78-.85Z"/>
            <path class="cls-2" d="M194.86,35.53c-.26-.03-.44-.15-.51-.37l-5.45.17s-.02.1-.03.15c-.15.54-.08,1.15-.04,1.72.09,1.24.45,1.68,1.69,1.62,1.48-.07,2.94-.34,4.42-.51.76-.09,1.5-.72,1.55-1.52.05-.82-.77-1.08-1.48-1.26-.05-.01-.1,0-.14,0Z"/>
            <path class="cls-2" d="M227.89,27.08c-.54-.82-1.21-1.25-2.27-1.21-1.43.06-2.58.65-3.55,1.61-.17.17-.33.29-.49.36-.36,2.99-2.45,5.46-5.27,6.35.25.69.68,1.31,1.04,1.96.33.61.4,1.27.4,1.94.01,1.52-.35,2.93-1.12,4.24-.22.38-.45.8-.99.56-.55-.25-.38-.68-.17-1.09.45-.88.85-1.75,1-2.78.25-1.72-.83-2.86-1.51-4.18-.06-.12-.18-.21-.26-.32-.14.01-.28.03-.43.03l-4.67.15-2.04.06c-.36.32-.75.57-1.31.64-1.08.13-2.17.15-3.34.23.86.91,2.13,1.54,3.15,1.61,1.25.09,2.46.35,3.64.75.28.1.53.27.39.63-.1.27-.35.29-.6.25-3.34-.47-6.54-1.39-9.48-3.07-.39-.23-.76-.49-1.12-.77l-1.59.05c.97,1.15,2.03,2.15,3.48,2.66.13.05.25.14.36.24.62.55,1.38.83,2.14,1.13,1.91.77,3.93,1.22,5.75,2.24,1.41.79,2.09,2.06,2.79,3.37.14.26.12.58-.18.76-.31.19-.58.03-.71-.26-.79-1.82-2.59-2.46-4.15-3.11-2.64-1.1-5.4-1.96-8.08-3.01-.41-.16-.66-.15-1,.19-.94.93-2.11,1.28-3.42,1.02-.91-.18-1.82,0-2.73-.02-1.08-.04-2.24.26-3.21-.39-.51-.35-.85-.31-1.26.03-.88.74-1.73,1.52-2.65,2.2-.91.67-1.39,1.57-1.62,2.62-.08.36.06.88-.49.85-.49-.02-.66-.49-.71-.95-.05-.39.05-.76.17-1.13.3-.9.91-1.57,1.61-2.17,1.09-.94,2.13-1.94,3.02-3.07.31-.39.72-.76.68-1.48-.4.16-.47.42-.62.6-.78.98-1.6,1.91-2.74,2.5-.4.21-.85.51-1.14.04-.31-.51.3-.58.58-.76,1.09-.72,1.96-1.64,2.85-2.99-1.28.66-2.33,1.09-3.45,1.25-1.04.15-1.67-.36-1.79-1.37,1.42.67,2.92.44,4.15-.61l-2.15.07-3.45.11c.15,2.45.56,4.89.37,7.34-.25,3.25,1.95,5.88,4.94,7.19,2.75,1.2,5.67,1.28,8.61,1.31,2.21.02,4.39-.41,6.6-.37,3.25.06,6.52.08,9.73-.69,1.44-.35,2.92-.56,4.4-.7,2.4-.23,4.73-.67,7.03-1.41,1.01-.33,1.63-.98,2.04-1.88.49-1.06.59-2.21.62-3.37.01-.41-.16-.65-.59-.62-.87.07-1.55-.45-2.31-.72-.87-.31-1.26-1-1.51-1.8-.11-.36-.23-.79.18-1.04.37-.23.73-.13,1.03.19.16.17.33.36.53.48,1.97,1.23,3.64.92,4.59-.96.45-.88.42-1.76.35-2.66-.06-.82.23-1.45.86-1.86,2.7-1.75,2.36-4.97,1.04-6.98ZM195.5,47.39c-1.01.62-2.19.64-3.24.88-1.34-.01-2.5-.41-3.65-.9-.33-.14-.53-.37-.58-.75-.07-.57.19-.81.72-.56.57.27,1.19.37,1.78.54,1.54.44,3.02.33,4.46-.41.35-.18.75-.57,1.17-.17.32.31-.03,1-.65,1.38ZM208.15,44.54c-.19.59-.7.48-1.21.33-4.13-1.18-8.28-1.23-12.46-.31-1.54.34-3.04.71-4.65.21-1.2-.37-2.47.02-3.7.21-.43.07-.85.14-1.28.19-.35.04-.69,0-.76-.45-.05-.34.16-.54.43-.66.65-.3,1.32-.56,2.05-.62.43-.04.86-.1,1.28-.15.88-.04,1.71.19,2.56.33.77.12,1.49.1,2.22-.31.93-.52,1.96-.79,3.01-.92,2.28-.27,4.56-.76,6.86-.33,1.69.31,3.33.84,4.89,1.57.37.17.91.37.74.9ZM226.42,30.08c-.81.29-.54,1.02-.77,1.55-.51,1.17-.87,2.42-1.49,3.54-.19.34-.53.52-.91.66-.95.36-1.17.23-1.2-.8-.08-.41.09-.75.37-1.03.78-.78,1-1.69.83-2.77-.16-1.03.4-1.84.97-2.63.34-.47.81-.51,1.28-.31.53.22,1.06.51,1.18,1.16.05.25-.05.55-.26.63Z"/>
            <path class="cls-2" d="M216.69,29.16c-.07.24-.15.47-.24.7-.37.94-.93,1.79-1.62,2.51-.14.14-.28.28-.42.41.61-.04,1.19-.17,1.74-.38,2.26-.87,3.83-3.1,3.75-5.65v-.27s-.01,0-.02,0c-.38.01-.79-.11-1.11-.37-.41-.32-.66-.8-.68-1.32l-.14-4.57c-.03-.87.59-1.6,1.42-1.76-.8-2.29-2.99-3.92-5.52-3.92,1.72,1.34,2.86,3.41,2.93,5.76l.2,6.54c.03.8-.08,1.58-.29,2.31Z"/>
          </g>
          <g>
            <path d="M227.99,24.48c.19-.31.3-.67.26-1.06l-.3-3.61c-.08-.93-.86-1.63-1.79-1.6l-1.85.06c-.39-2.85-1.1-5.98-3.42-7.69-.27-.14-.65-.37-1.07-.64-2.22-1.41-4.82-2.14-7.45-2.04-1.22.05-2.46.17-3.88.21-2.86.09-5.71.54-8.59.31-.99-.08-1.99-.31-2.95.19-.15.08-.38.03-.57,0-1.6-.19-3.14.12-4.69.51-.79.2-1.6.44-2.4.46-2.8.06-5.35,1.04-7.84,2.16-1.21.55-2.47,1.06-3.35,2.13l-.64.02c-4.2.13-7.5,3.65-7.37,7.85l.2,6.54c.12,3.73,2.92,6.75,6.49,7.29,0,.28.01.55.02.83.09,1.81.15,3.61.49,5.4.17.9.25,1.81.31,2.72.1,1.53.69,2.96,1.48,4.17.96,1.47,2.22,2.75,4.08,3.24,1.02.27,2.01.61,3.06.8,2.17.4,4.39.43,6.53,1.04.31.09.67.08,1,.07,1.87-.05,3.74-.11,5.61-.17,2.06-.15,4.14.08,6.18-.18,3.38-.43,6.77-.73,10.11-1.41,1.78-.36,3.63-.42,5.36-1.01,2.56-.87,4.28-2.53,4.66-5.3.16-1.18.18-2.39.21-3.59.01-.55.11-.98.51-1.42.87-.94,1.33-2.09,1.39-3.39.03-.67.11-1.35.5-1.93.74-1.07,1.21-2.29,1.84-3.42.48-.85.77-1.78.75-2.75-.03-2.06-1-4.06-2.91-4.82ZM187.04,12.04c3.76-.46,7.55-.7,11.24-1.56,1.48-.34,2.98-.27,4.42-.24,1.63.04,3.26-.04,4.88-.04,1.88,0,3.72.16,5.57.43.39,0,.77.05,1.14.12.2.04.41.09.61.15.03.01.07.02.1.03.13.04.26.08.39.13.21.08.42.16.62.25.33.15.65.31.97.48.13.07.27.15.4.23.22.13.44.26.66.39.09.05.18.11.26.16.31.19.61.38.91.57.17.11.34.21.5.32.51.23,1.16,2.51,1.75,4.89h-.31c-.91-3.3-3.99-5.69-7.57-5.58l-4.67.15-26.78.84h-.47c1.7-.83,3.44-1.5,5.37-1.73ZM213.84,14.54c2.54,0,4.72,1.63,5.52,3.92-.83.16-1.44.89-1.42,1.76l.14,4.57c.02.52.26,1.01.68,1.32.33.25.73.38,1.11.37,0,0,0,0,0,0v.27c.09,2.55-1.49,4.77-3.74,5.65-.54.21-1.13.34-1.74.38.15-.13.29-.27.42-.41.69-.72,1.25-1.57,1.62-2.51.09-.23.17-.46.24-.7.21-.73.31-1.51.29-2.31l-.2-6.54c-.07-2.35-1.21-4.42-2.93-5.76ZM194.86,35.53s.1,0,.14,0c.71.17,1.53.44,1.48,1.26-.05.8-.78,1.42-1.55,1.52-1.47.17-2.94.44-4.42.51-1.24.06-1.6-.38-1.69-1.62-.04-.57-.11-1.18.04-1.72.01-.05.02-.1.03-.15l5.45-.17c.07.22.25.33.51.37ZM226.85,34.07c-.63.41-.92,1.04-.86,1.86.07.89.1,1.77-.35,2.66-.95,1.88-2.61,2.19-4.59.96-.2-.13-.37-.31-.53-.48-.3-.32-.66-.43-1.03-.19-.41.26-.29.69-.18,1.04.25.8.64,1.5,1.51,1.8.76.27,1.44.78,2.31.72.43-.03.6.21.59.62-.03,1.16-.13,2.31-.62,3.37-.41.89-1.04,1.55-2.04,1.88-2.29.74-4.63,1.19-7.03,1.41-1.48.14-2.96.36-4.4.7-3.21.77-6.48.75-9.73.69-2.22-.04-4.39.39-6.6.37-2.94-.02-5.87-.1-8.61-1.31-2.99-1.31-5.19-3.94-4.94-7.19.19-2.45-.22-4.89-.37-7.34l3.45-.11,2.15-.07c-1.23,1.05-2.73,1.28-4.15.61.12,1.01.75,1.52,1.79,1.37,1.13-.16,2.18-.59,3.45-1.25-.89,1.35-1.77,2.27-2.85,2.99-.28.18-.9.26-.58.76.29.47.74.17,1.14-.04,1.14-.6,1.96-1.53,2.74-2.5.15-.18.21-.44.62-.6.04.72-.37,1.09-.68,1.48-.9,1.13-1.93,2.13-3.02,3.07-.7.6-1.3,1.27-1.61,2.17-.13.37-.22.74-.17,1.13.05.46.22.92.71.95.55.03.41-.5.49-.85.24-1.05.71-1.95,1.62-2.62.92-.68,1.77-1.47,2.65-2.2.41-.34.74-.38,1.26-.03.96.66,2.13.36,3.21.39.91.03,1.81-.15,2.73.02,1.31.26,2.48-.09,3.42-1.02.34-.34.59-.35,1-.19,2.68,1.04,5.44,1.9,8.08,3.01,1.56.65,3.36,1.29,4.15,3.11.12.29.39.44.71.26.3-.18.32-.5.18-.76-.7-1.3-1.38-2.58-2.79-3.37-1.83-1.02-3.85-1.47-5.75-2.24-.76-.31-1.52-.58-2.14-1.13-.11-.09-.23-.19-.36-.24-1.45-.51-2.51-1.51-3.48-2.66l1.59-.05c.36.28.73.55,1.12.77,2.94,1.68,6.14,2.6,9.48,3.07.25.04.5.02.6-.25.14-.36-.11-.54-.39-.63-1.18-.4-2.4-.66-3.64-.75-1.01-.07-2.29-.7-3.15-1.61,1.17-.08,2.26-.1,3.34-.23.55-.07.95-.32,1.31-.64l2.04-.06,4.67-.15c.14,0,.28-.02.43-.03.08.11.2.2.26.32.68,1.32,1.76,2.46,1.51,4.18-.15,1.03-.55,1.9-1,2.78-.21.41-.38.84.17,1.09.54.25.76-.18.99-.56.77-1.31,1.14-2.72,1.12-4.24,0-.67-.07-1.34-.4-1.94-.36-.65-.79-1.27-1.04-1.96,2.82-.89,4.91-3.37,5.27-6.35.16-.07.32-.19.49-.36.98-.96,2.12-1.55,3.55-1.61,1.05-.04,1.73.39,2.27,1.21,1.32,2.02,1.66,5.23-1.04,6.98Z"/>
            <path d="M207.41,43.65c-1.56-.73-3.2-1.25-4.89-1.57-2.3-.43-4.58.06-6.86.33-1.05.12-2.09.4-3.01.92-.72.4-1.45.43-2.22.31-.85-.14-1.69-.37-2.56-.33-.43.05-.86.11-1.28.15-.73.06-1.4.32-2.05.62-.28.13-.48.33-.43.66.07.45.41.48.76.45.43-.05.85-.13,1.28-.19,1.23-.19,2.5-.58,3.7-.21,1.62.5,3.12.13,4.65-.21,4.18-.92,8.34-.88,12.46.31.5.14,1.02.26,1.21-.33.17-.53-.37-.73-.74-.9Z"/>
            <path d="M225.5,28.29c-.47-.2-.95-.16-1.28.31-.57.79-1.13,1.6-.97,2.63.16,1.08-.05,1.99-.83,2.77-.28.28-.45.62-.37,1.03.03,1.03.25,1.16,1.2.8.38-.14.72-.32.91-.66.63-1.12.98-2.37,1.49-3.54.23-.53-.04-1.26.77-1.55.21-.08.31-.38.26-.63-.12-.65-.64-.94-1.18-1.16Z"/>
            <path d="M194.98,46.18c-1.44.74-2.92.85-4.46.41-.59-.17-1.21-.26-1.78-.54-.53-.25-.79,0-.72.56.05.38.25.61.58.75,1.15.49,2.32.89,3.65.9,1.05-.24,2.23-.25,3.24-.88.62-.38.96-1.07.65-1.38-.41-.4-.82,0-1.17.17Z"/>
          </g>
        </g>
        <g>
          <path class="cls-2" d="M178.79,28.92c-.45.01-.82,0-1.1-.03-.28-.03-.5-.09-.66-.18-.16-.09-.28-.21-.37-.38-.13-.22-.23-.68-.31-1.38-.08-.7-.13-1.56-.16-2.57-.02-.67-.03-1.27-.01-1.8.01-.53.04-.98.08-1.34s.1-.62.16-.77c.08-.16.19-.29.34-.39s.36-.18.65-.23c.28-.05.65-.08,1.1-.1,1.7-.05,3.03.29,3.97,1.02.94.73,1.44,1.85,1.47,3.34.03,1-.15,1.85-.54,2.56-.39.71-.98,1.25-1.76,1.62-.78.38-1.73.58-2.86.62ZM179.03,26.68c.57-.02,1.05-.12,1.43-.29.38-.18.66-.45.86-.81.19-.36.28-.84.26-1.42-.02-.55-.14-.98-.37-1.32-.23-.33-.54-.57-.93-.71s-.86-.2-1.4-.19c-.06,0-.11.01-.15.03-.05.02-.08.06-.11.12-.03.07-.05.18-.06.35-.01.17-.02.4-.01.69,0,.29.01.67.03,1.13.02.59.04,1.05.06,1.38.02.33.05.57.08.71.03.15.07.24.13.27.05.04.11.05.19.05Z"/>
          <path class="cls-2" d="M187.73,28.61c-.58.02-1.05,0-1.4-.03-.35-.04-.62-.11-.8-.22-.18-.11-.31-.23-.4-.36-.07-.14-.14-.39-.2-.76-.06-.37-.11-.83-.15-1.37-.04-.54-.07-1.13-.09-1.75-.02-.67-.03-1.27-.01-1.8.01-.53.04-.98.08-1.34.04-.36.09-.6.15-.73.08-.17.2-.31.38-.41.17-.1.42-.18.75-.22.33-.05.77-.08,1.34-.1.76-.02,1.36-.01,1.8.03.44.05.75.15.94.3.19.15.28.37.29.64,0,.31-.06.54-.21.69-.15.16-.41.24-.77.25-.2,0-.42.01-.66.01-.24,0-.47,0-.71,0-.24,0-.46,0-.67,0-.14,0-.24.03-.3.08-.06.05-.09.16-.09.32,0,.14,0,.28,0,.42,0,.14,0,.28,0,.41,0,.15.04.24.11.28.07.04.17.06.31.05.25,0,.47-.02.65-.03.18-.01.37-.02.55-.03.18-.01.39-.02.62-.03.39-.01.66.05.81.19.15.14.23.36.24.65s-.06.5-.22.65c-.15.15-.4.23-.74.24-.27,0-.58.01-.93.02-.35,0-.7,0-1.06.02-.18,0-.26.09-.26.24v.46c.02.16.03.3.03.44,0,.13.02.25.02.34,0,.09.01.15.01.17.01.11.04.19.09.24.05.05.13.07.24.07l.93-.03.77-.02.56-.02c.23,0,.43.05.58.16.16.12.24.32.25.6,0,.19-.03.35-.1.5-.07.15-.2.27-.41.37-.2.1-.49.19-.86.26s-.86.11-1.48.13Z"/>
          <path class="cls-2" d="M194.2,28.44c-1.05.03-1.81-.3-2.29-1-.48-.7-.74-1.74-.79-3.13-.02-.69-.02-1.33,0-1.9.02-.57.05-1.07.11-1.48.05-.41.12-.71.21-.9.1-.22.24-.38.39-.48.16-.11.36-.16.61-.17.3,0,.54.09.72.29.19.2.29.54.3,1.03.02.68.03,1.31.02,1.88,0,.57,0,1.15.02,1.73.02.65.11,1.1.28,1.37.17.26.42.39.75.38.18,0,.34-.07.48-.18.14-.12.27-.3.37-.55.1-.25.14-.57.13-.97-.02-.63-.04-1.23-.06-1.79-.02-.56-.04-1.19-.07-1.87-.01-.32.03-.59.12-.79.09-.2.22-.36.4-.46.17-.11.37-.16.59-.17.24,0,.45.04.63.13.18.1.32.24.42.44.1.2.16.46.17.78.01.46.03.89.03,1.28,0,.39.02.78.02,1.17,0,.39.02.79.03,1.21s.07.72.18.96c.11.24.25.42.41.52.17.11.34.16.51.15.31,0,.53-.15.69-.42.15-.27.22-.73.2-1.38-.02-.58-.05-1.16-.08-1.73-.04-.57-.07-1.2-.09-1.88-.02-.48.06-.83.23-1.04.17-.21.42-.33.74-.34.26,0,.46.03.62.13.15.09.28.23.37.43.11.18.2.48.29.9.08.42.15.92.2,1.49.05.58.09,1.21.11,1.89.04,1.39-.15,2.45-.57,3.17-.43.73-1.16,1.11-2.21,1.14-.55.02-1-.08-1.37-.3-.37-.22-.68-.51-.93-.86-.08-.11-.14-.18-.19-.22-.05-.04-.11-.06-.18-.06s-.12.02-.16.07c-.04.04-.1.12-.17.23-.23.37-.52.67-.87.92-.35.24-.8.37-1.34.39Z"/>
          <path class="cls-2" d="M205.76,28.08c-.45.01-.82,0-1.1-.03-.28-.03-.5-.09-.66-.18-.16-.09-.28-.21-.37-.38-.13-.22-.23-.68-.31-1.38-.08-.7-.13-1.56-.16-2.57-.02-.67-.03-1.27-.01-1.8.01-.53.04-.98.08-1.34s.1-.62.16-.77c.08-.16.19-.29.34-.39s.36-.18.65-.23c.28-.05.65-.08,1.1-.1,1.7-.05,3.03.29,3.97,1.02.94.73,1.44,1.85,1.47,3.34.03,1-.15,1.85-.54,2.56-.39.71-.98,1.25-1.76,1.62-.78.38-1.73.58-2.86.62ZM206,25.83c.57-.02,1.05-.12,1.43-.29.38-.18.66-.45.86-.81.19-.36.28-.84.26-1.42-.02-.55-.14-.98-.37-1.32-.23-.33-.54-.57-.93-.71s-.86-.2-1.4-.19c-.06,0-.11.01-.15.03-.05.02-.08.06-.11.12-.03.07-.05.18-.06.35-.01.17-.02.4-.01.69,0,.29.01.67.03,1.13.02.59.04,1.05.06,1.38.02.33.05.57.08.71.03.15.07.24.13.27.05.04.11.05.19.05Z"/>
        </g>
      </g>
    </g>
  </g>
</svg>