<?xml version="1.0" encoding="UTF-8"?>
<svg id="Layer_2" data-name="Layer 2" xmlns="http://www.w3.org/2000/svg" viewBox="0 0 61.61 46.28">
  <defs>
    <style>
      .cls-1 {
        fill: #fff;
      }
    </style>
  </defs>
  <g id="Layer_1-2" data-name="Layer 1">
    <g>
      <g>
        <g>
          <path class="cls-1" d="M39.78,5.04h4.75c3.64,0,6.7,2.53,7.52,5.93h.31c-.52-2.44-1.11-4.78-1.62-5.04-.17-.11-.33-.22-.5-.34-.3-.2-.6-.41-.9-.61-.09-.06-.18-.12-.26-.17-.22-.14-.43-.28-.65-.42-.13-.08-.27-.16-.4-.24-.32-.19-.64-.36-.97-.52-.21-.1-.41-.19-.63-.28-.13-.05-.26-.1-.39-.15-.03-.01-.07-.03-.1-.04-.2-.07-.41-.12-.61-.17-.38-.09-.77-.15-1.16-.16-1.87-.33-3.74-.57-5.65-.62-1.65-.05-3.31-.02-4.97-.11-1.47-.08-2.99-.2-4.51.1-3.79.76-7.65.89-11.49,1.23-1.96.18-3.76.8-5.51,1.6h27.75Z"/>
          <path class="cls-1" d="M24.75,27.58c-.26-.04-.44-.17-.5-.39h-5.55s-.02.1-.04.15c-.16.54-.12,1.16-.09,1.75.05,1.27.4,1.72,1.67,1.7,1.5-.02,3.01-.25,4.51-.38.78-.07,1.55-.68,1.62-1.49.07-.83-.75-1.12-1.47-1.32-.05-.01-.1,0-.15-.01Z"/>
          <path class="cls-1" d="M58.62,20.04c-.52-.85-1.19-1.31-2.27-1.31-1.46.01-2.64.58-3.67,1.52-.18.16-.34.29-.51.35-.46,3.03-2.67,5.48-5.56,6.29.23.71.65,1.35.99,2.03.32.63.36,1.3.34,1.99-.03,1.54-.45,2.97-1.28,4.27-.24.38-.48.8-1.02.53-.55-.28-.37-.71-.14-1.11.49-.89.92-1.75,1.1-2.8.3-1.75-.75-2.93-1.4-4.3-.06-.12-.17-.22-.25-.34-.14,0-.29.02-.44.02h-6.83c-.37.31-.78.56-1.35.61-1.1.1-2.21.09-3.4.13.84.95,2.12,1.63,3.15,1.74,1.27.13,2.49.43,3.68.87.29.11.53.29.38.66-.11.27-.36.28-.62.24-3.38-.58-6.61-1.62-9.55-3.42-.39-.24-.76-.52-1.12-.82h-1.62c.95,1.2,2,2.25,3.46,2.82.13.05.25.15.36.25.62.58,1.38.88,2.14,1.22,1.92.84,3.96,1.37,5.78,2.46,1.41.84,2.06,2.17,2.73,3.51.14.27.1.6-.21.77-.32.18-.59.01-.71-.28-.75-1.88-2.56-2.59-4.12-3.3-2.65-1.21-5.43-2.17-8.12-3.31-.41-.17-.66-.17-1.02.16-.99.92-2.19,1.23-3.51.93-.92-.21-1.85-.05-2.77-.11-1.1-.07-2.29.2-3.25-.5-.51-.37-.85-.34-1.28,0-.92.72-1.81,1.49-2.77,2.16-.95.65-1.46,1.55-1.73,2.62-.09.36.03.9-.52.85-.5-.04-.65-.52-.69-.99-.03-.4.07-.77.21-1.14.34-.91.97-1.56,1.7-2.16,1.14-.92,2.23-1.91,3.17-3.03.33-.38.76-.75.74-1.48-.42.15-.49.41-.65.59-.83.97-1.69,1.89-2.87,2.46-.41.2-.88.49-1.16,0-.3-.52.33-.58.62-.76,1.13-.7,2.05-1.6,3-2.95-1.32.63-2.4,1.03-3.55,1.16-1.06.12-1.69-.42-1.78-1.45,1.42.73,2.95.54,4.24-.49h-5.7c.08,2.5.42,4.99.14,7.48-.36,3.3,1.8,6.05,4.8,7.47,2.75,1.31,5.73,1.48,8.72,1.6,2.25.09,4.47-.28,6.73-.17,3.31.17,6.63.29,9.92-.39,1.48-.31,2.99-.48,4.5-.58,2.45-.15,4.84-.53,7.19-1.22,1.04-.3,1.69-.95,2.14-1.84.53-1.07.67-2.23.74-3.41.02-.41-.14-.67-.58-.65-.89.04-1.56-.51-2.33-.8-.87-.34-1.25-1.06-1.47-1.88-.1-.37-.21-.81.21-1.06.38-.23.75-.11,1.04.23.16.18.33.37.53.51,1.97,1.32,3.67,1.05,4.69-.83.48-.88.48-1.78.44-2.69-.04-.84.28-1.47.94-1.86,2.81-1.69,2.56-4.98,1.28-7.07ZM25.02,39.67c-1.05.6-2.24.58-3.33.79-1.36-.05-2.54-.5-3.69-1.03-.33-.15-.53-.39-.56-.78-.05-.58.22-.82.75-.55.57.3,1.19.41,1.79.6,1.55.5,3.06.43,4.55-.28.36-.17.78-.56,1.19-.14.31.32-.06,1.01-.7,1.38ZM37.98,37.17c-.21.59-.73.46-1.24.3-4.16-1.33-8.39-1.51-12.67-.71-1.57.3-3.11.62-4.74.06-1.21-.42-2.51-.06-3.77.1-.43.06-.87.12-1.3.16-.36.03-.7-.02-.76-.48-.04-.35.18-.54.46-.66.68-.29,1.36-.53,2.11-.57.44-.02.87-.07,1.31-.11.89-.02,1.74.25,2.6.41.78.15,1.52.15,2.27-.24.96-.5,2.02-.74,3.09-.84,2.33-.2,4.66-.63,6.99-.12,1.71.37,3.36.96,4.93,1.75.37.19.91.41.72.94ZM57.03,23.04c-.83.27-.58,1.02-.83,1.55-.56,1.18-.96,2.44-1.63,3.56-.2.34-.55.51-.94.64-.98.33-1.2.2-1.19-.85-.07-.42.12-.76.41-1.04.81-.77,1.07-1.69.93-2.79-.13-1.05.47-1.86,1.07-2.64.36-.47.84-.49,1.32-.28.53.24,1.06.55,1.16,1.22.04.25-.07.56-.28.63Z"/>
          <path class="cls-1" d="M47.16,21.79c-.08.24-.16.48-.26.71-.41.95-1,1.8-1.73,2.5-.14.14-.29.27-.44.4.62-.02,1.22-.14,1.78-.33,2.32-.82,3.99-3.03,3.99-5.63v-.27s0,0,0,0c-.39,0-.8-.14-1.12-.41-.41-.34-.65-.84-.65-1.37v-4.66c0-.88.65-1.61,1.5-1.75-.75-2.36-2.92-4.08-5.5-4.16,1.71,1.42,2.8,3.56,2.8,5.96v6.66c0,.82-.13,1.6-.36,2.34Z"/>
        </g>
        <g>
          <path d="M58.8,17.39c.21-.31.32-.68.3-1.07l-.19-3.68c-.05-.95-.83-1.69-1.77-1.69h-1.88c-.31-2.91-.93-6.12-3.23-7.93-.27-.15-.65-.4-1.07-.68C48.75.84,46.13.02,43.45.04c-1.24.01-2.51.09-3.95.09-2.91,0-5.83.36-8.75.04-1-.11-2.02-.38-3.01.1-.15.08-.39.02-.58,0-1.62-.24-3.2.02-4.78.37-.81.18-1.64.39-2.45.39-2.85-.03-5.47.89-8.04,1.95-1.25.52-2.55,1-3.48,2.06h-.65C3.48,5.04,0,8.51,0,12.79v6.66c0,3.8,2.75,6.96,6.37,7.62,0,.28,0,.56,0,.84.03,1.84.04,3.68.33,5.51.15.92.2,1.85.23,2.78.05,1.56.61,3.04,1.37,4.29.93,1.52,2.18,2.86,4.04,3.42,1.03.31,2.03.68,3.08.91,2.19.48,4.45.58,6.61,1.27.32.1.68.1,1.02.1,1.9,0,3.81,0,5.71,0,2.1-.09,4.21.21,6.29.02,3.45-.33,6.91-.53,10.33-1.12,1.82-.31,3.7-.31,5.49-.86,2.63-.8,4.43-2.44,4.91-5.24.2-1.2.26-2.43.33-3.64.03-.56.14-1,.56-1.43.92-.93,1.42-2.09,1.52-3.41.05-.68.15-1.37.57-1.94.79-1.07,1.3-2.29,1.98-3.42.52-.85.84-1.79.85-2.77.03-2.1-.89-4.17-2.8-4.99ZM17.54,3.43c3.84-.35,7.7-.47,11.49-1.23,1.51-.3,3.04-.18,4.51-.1,1.66.09,3.31.07,4.97.11,1.91.05,3.78.29,5.65.62.39.01.78.07,1.16.16.21.05.41.1.61.17.03.01.07.03.1.04.13.05.26.09.39.15.21.08.42.18.63.28.33.16.65.33.97.52.13.08.27.16.4.24.22.14.44.28.65.42.09.06.18.12.26.17.31.2.61.41.9.61.17.11.33.23.5.34.51.25,1.1,2.59,1.62,5.04h-.31c-.82-3.39-3.88-5.93-7.52-5.93H12.03c1.76-.81,3.55-1.43,5.51-1.6ZM44.73,6.83c2.58.08,4.75,1.81,5.5,4.16-.85.13-1.5.86-1.5,1.75v4.66c0,.53.24,1.03.65,1.37.33.27.73.41,1.12.41,0,0,0,0,0,0v.27c0,2.6-1.67,4.81-3.99,5.63-.56.2-1.16.31-1.78.33.15-.13.3-.26.44-.4.73-.71,1.32-1.56,1.73-2.5.1-.23.19-.47.26-.71.24-.74.36-1.53.36-2.34v-6.66c0-2.39-1.09-4.54-2.8-5.96ZM24.75,27.58s.1,0,.15.01c.72.2,1.54.49,1.47,1.32-.07.81-.84,1.42-1.62,1.49-1.5.13-3.01.36-4.51.38-1.27.02-1.62-.43-1.67-1.7-.02-.58-.07-1.2.09-1.75.02-.05.02-.1.04-.15h5.55c.06.22.24.35.5.39ZM57.34,27.11c-.65.39-.97,1.03-.94,1.86.04.91.04,1.81-.44,2.69-1.02,1.88-2.73,2.15-4.69.83-.2-.13-.36-.33-.53-.51-.3-.34-.66-.45-1.04-.23-.42.25-.31.69-.21,1.06.23.82.6,1.54,1.47,1.88.77.3,1.44.84,2.33.8.44-.02.6.24.58.65-.07,1.18-.21,2.34-.74,3.41-.45.9-1.1,1.54-2.14,1.84-2.36.68-4.75,1.06-7.19,1.22-1.51.1-3.02.27-4.5.58-3.29.68-6.61.56-9.92.39-2.26-.11-4.48.26-6.73.17-2.99-.12-5.97-.29-8.72-1.6-3-1.43-5.16-4.18-4.8-7.47.27-2.49-.06-4.98-.14-7.48h5.7c-1.29,1.03-2.81,1.21-4.24.49.09,1.04.71,1.57,1.78,1.45,1.15-.13,2.23-.53,3.55-1.16-.95,1.35-1.87,2.25-3,2.95-.29.18-.92.23-.62.76.28.49.75.2,1.16,0,1.17-.57,2.04-1.49,2.87-2.46.15-.18.23-.44.65-.59.02.73-.41,1.1-.74,1.48-.95,1.12-2.03,2.11-3.17,3.03-.73.59-1.37,1.25-1.7,2.16-.14.37-.24.74-.21,1.14.04.47.19.95.69.99.56.05.43-.49.52-.85.27-1.06.79-1.96,1.73-2.62.96-.66,1.85-1.44,2.77-2.16.43-.33.77-.36,1.28,0,.96.7,2.15.43,3.25.5.92.06,1.85-.1,2.77.11,1.33.3,2.52-.01,3.51-.93.36-.33.61-.33,1.02-.16,2.69,1.15,5.47,2.11,8.12,3.31,1.56.71,3.37,1.42,4.12,3.3.12.3.39.46.71.28.31-.17.34-.5.21-.77-.67-1.35-1.32-2.67-2.73-3.51-1.83-1.09-3.87-1.62-5.78-2.46-.77-.34-1.53-.64-2.14-1.22-.11-.1-.23-.2-.36-.25-1.46-.57-2.51-1.62-3.46-2.82h1.62c.35.3.72.58,1.12.82,2.94,1.8,6.17,2.84,9.55,3.42.25.04.51.04.62-.24.15-.36-.1-.55-.38-.66-1.19-.44-2.42-.74-3.68-.87-1.03-.11-2.31-.79-3.15-1.74,1.19-.04,2.3-.02,3.4-.13.57-.05.98-.3,1.35-.61h6.83c.15,0,.29-.01.44-.02.08.12.19.21.25.34.65,1.37,1.71,2.55,1.4,4.3-.18,1.05-.62,1.91-1.1,2.8-.22.41-.41.84.14,1.11.54.27.78-.15,1.02-.53.83-1.3,1.24-2.73,1.28-4.27.02-.69-.03-1.36-.34-1.99-.34-.68-.76-1.32-.99-2.03,2.9-.81,5.1-3.27,5.56-6.29.16-.06.33-.19.51-.35,1.02-.94,2.21-1.51,3.67-1.52,1.07,0,1.75.45,2.27,1.31,1.28,2.09,1.53,5.38-1.28,7.07Z"/>
          <path d="M37.26,36.24c-1.57-.79-3.22-1.38-4.93-1.75-2.33-.51-4.66-.08-6.99.12-1.07.09-2.14.34-3.09.84-.75.39-1.49.39-2.27.24-.86-.16-1.71-.43-2.6-.41-.44.04-.87.09-1.31.11-.74.04-1.43.28-2.11.57-.29.12-.5.32-.46.66.05.46.4.51.76.48.44-.04.87-.1,1.3-.16,1.26-.16,2.56-.52,3.77-.1,1.63.56,3.17.23,4.74-.06,4.28-.8,8.51-.63,12.67.71.51.16,1.03.29,1.24-.3.19-.53-.35-.75-.72-.94Z"/>
          <path d="M56.15,21.19c-.47-.22-.96-.19-1.32.28-.6.78-1.2,1.6-1.07,2.64.13,1.1-.12,2.02-.93,2.79-.29.28-.48.62-.41,1.04,0,1.05.22,1.18,1.19.85.39-.13.74-.3.94-.64.68-1.12,1.07-2.38,1.63-3.56.25-.53,0-1.28.83-1.55.22-.07.32-.38.28-.63-.1-.66-.63-.97-1.16-1.22Z"/>
          <path d="M24.54,38.42c-1.49.7-3,.77-4.55.28-.6-.19-1.22-.3-1.79-.6-.53-.28-.8-.03-.75.55.03.39.23.63.56.78,1.15.53,2.33.98,3.69,1.03,1.08-.21,2.27-.18,3.33-.79.64-.37,1.02-1.06.7-1.38-.41-.42-.83-.03-1.19.14Z"/>
        </g>
      </g>
      <g>
        <path class="cls-1" d="M8.62,20.35c-.46,0-.83-.02-1.12-.06-.28-.04-.5-.11-.66-.2-.16-.09-.28-.23-.37-.4-.12-.23-.21-.7-.27-1.41-.06-.72-.08-1.59-.08-2.61,0-.68.01-1.29.04-1.83.03-.54.07-1,.13-1.36s.12-.63.18-.78c.08-.16.2-.29.36-.39s.38-.17.66-.21c.29-.04.66-.06,1.12-.06,1.73,0,3.07.39,4.01,1.17.94.78,1.4,1.92,1.39,3.44,0,1.02-.21,1.88-.63,2.59-.42.71-1.03,1.24-1.84,1.6-.81.36-1.78.54-2.93.54ZM8.93,18.07c.58,0,1.07-.08,1.46-.25.39-.17.69-.44.9-.8.21-.36.31-.84.31-1.43,0-.56-.11-1.01-.33-1.35-.22-.34-.53-.59-.93-.75s-.87-.23-1.41-.23c-.06,0-.11,0-.16.02-.05.01-.08.05-.11.12-.03.07-.05.18-.07.35-.02.17-.03.4-.04.7,0,.3,0,.68,0,1.15,0,.6,0,1.07.01,1.41,0,.33.03.58.06.73.03.15.07.25.12.28.05.04.12.06.19.06Z"/>
        <path class="cls-1" d="M17.72,20.32c-.59,0-1.07-.03-1.43-.08-.36-.05-.63-.13-.81-.25-.18-.11-.31-.24-.4-.38-.07-.14-.12-.4-.18-.78-.05-.38-.09-.85-.11-1.4-.02-.55-.04-1.15-.04-1.79,0-.68.01-1.29.04-1.83.03-.54.07-1,.12-1.36.05-.37.11-.61.18-.73.08-.17.22-.3.4-.4.18-.1.44-.17.77-.2.33-.04.79-.06,1.36-.06.77,0,1.38.03,1.83.09.45.06.76.17.95.33.18.16.28.38.28.66,0,.31-.08.54-.24.7-.16.16-.42.23-.79.23-.21,0-.43,0-.67,0-.24,0-.48-.01-.72-.02-.24,0-.47-.01-.69-.01-.14,0-.24.02-.3.07-.06.05-.1.16-.11.33,0,.14-.02.29-.02.43,0,.15,0,.29,0,.42,0,.15.03.25.1.29.07.04.17.06.31.06.25,0,.48,0,.66,0,.19,0,.38,0,.57-.01.19,0,.4,0,.64,0,.4,0,.67.07.82.22.15.15.23.37.23.67s-.08.51-.24.66c-.16.15-.41.22-.76.22-.27,0-.59,0-.95-.01-.36,0-.72-.01-1.07-.01-.18,0-.27.08-.27.24v.47c0,.16,0,.31,0,.45,0,.14,0,.25.01.35,0,.09,0,.15,0,.17,0,.11.04.2.08.25.05.05.13.08.24.08h2.3c.24,0,.43.06.59.18.16.12.23.33.23.62,0,.19-.04.36-.11.5-.08.15-.22.27-.42.37-.21.1-.5.18-.88.23s-.88.08-1.51.08Z"/>
        <path class="cls-1" d="M24.3,20.35c-1.06,0-1.83-.36-2.3-1.09-.47-.73-.7-1.8-.7-3.21,0-.71.02-1.35.06-1.94.04-.58.09-1.08.16-1.5.07-.41.15-.72.24-.9.11-.22.25-.38.42-.48.16-.1.37-.16.63-.16.3,0,.54.11.73.32.18.21.28.56.28,1.05,0,.7-.01,1.34-.04,1.92-.02.58-.04,1.17-.04,1.76,0,.66.08,1.13.24,1.4.16.27.41.41.75.41.18,0,.34-.06.49-.17.15-.11.28-.29.39-.54.11-.25.16-.58.16-.98,0-.64,0-1.25,0-1.82,0-.57,0-1.21,0-1.91,0-.33.05-.6.15-.8.1-.2.24-.36.42-.46.18-.1.38-.16.61-.16.24,0,.46.05.64.16.18.1.32.26.42.46.1.2.15.47.15.8,0,.47,0,.91,0,1.31,0,.4,0,.8-.01,1.19,0,.4,0,.81,0,1.23s.05.73.16.98c.1.25.24.43.4.54.16.11.34.17.52.17.31,0,.55-.14.71-.41.16-.27.25-.74.25-1.4,0-.59,0-1.18-.03-1.76-.02-.58-.03-1.22-.03-1.92,0-.49.09-.84.27-1.05.18-.21.43-.32.76-.32.26,0,.47.05.62.15.15.1.27.25.37.45.1.19.19.5.26.93.07.43.12.94.16,1.53.03.59.05,1.23.05,1.93,0,1.41-.23,2.48-.69,3.21-.46.73-1.22,1.09-2.28,1.09-.56,0-1.02-.12-1.39-.35-.37-.24-.67-.54-.92-.9-.08-.11-.14-.19-.19-.23-.05-.04-.11-.06-.18-.06s-.12.02-.16.06c-.04.04-.1.12-.18.23-.25.37-.55.67-.91.9-.36.24-.82.35-1.38.35Z"/>
        <path class="cls-1" d="M36.08,20.35c-.46,0-.83-.02-1.12-.06-.28-.04-.5-.11-.66-.2-.16-.09-.28-.23-.37-.4-.12-.23-.21-.7-.27-1.41-.06-.72-.08-1.59-.08-2.61,0-.68.01-1.29.04-1.83.03-.54.07-1,.13-1.36s.12-.63.18-.78c.08-.16.2-.29.36-.39s.38-.17.66-.21c.29-.04.66-.06,1.12-.06,1.73,0,3.07.39,4.01,1.17.94.78,1.4,1.92,1.39,3.44,0,1.02-.21,1.88-.63,2.59-.42.71-1.03,1.24-1.84,1.6-.81.36-1.78.54-2.93.54ZM36.39,18.07c.58,0,1.07-.08,1.46-.25.39-.17.69-.44.9-.8.21-.36.31-.84.31-1.43,0-.56-.11-1.01-.33-1.35-.22-.34-.53-.59-.93-.75s-.87-.23-1.41-.23c-.06,0-.11,0-.16.02-.05.01-.08.05-.11.12-.03.07-.05.18-.07.35-.02.17-.03.4-.04.7,0,.3,0,.68,0,1.15,0,.6,0,1.07.01,1.41,0,.33.03.58.06.73.03.15.07.25.12.28.05.04.12.06.19.06Z"/>
      </g>
    </g>
  </g>
</svg>